<svg xmlns="http://www.w3.org/2000/svg" xmlns:xlink="http://www.w3.org/1999/xlink" width="24" height="24" viewBox="0 0 24 24"><defs><style>.a{fill:none;}.b{clip-path:url(#a);}.c{fill:#55acee;}.d{fill:#f1f2f2;}</style><clipPath id="a"><rect class="a" width="24" height="24"/></clipPath></defs><g class="b"><circle class="c" cx="12" cy="12" r="12"/><path class="d" d="M39.1,35.375a5.731,5.731,0,0,1-1.65.452,2.88,2.88,0,0,0,1.263-1.589,5.75,5.75,0,0,1-1.824.7A2.875,2.875,0,0,0,32,37.555a8.153,8.153,0,0,1-5.92-3,2.875,2.875,0,0,0,.889,3.835,2.852,2.852,0,0,1-1.3-.36c0,.012,0,.024,0,.036a2.874,2.874,0,0,0,2.3,2.816,2.883,2.883,0,0,1-1.3.05,2.875,2.875,0,0,0,2.683,1.995A5.8,5.8,0,0,1,25.1,44.115a8.168,8.168,0,0,0,12.575-6.882c0-.124,0-.248-.008-.371A5.824,5.824,0,0,0,39.1,35.375Z" transform="translate(-20.103 -27.303)"/></g></svg>